{"glyphs":{"0":{"ha":829,"x_min":75,"x_max":765,"o":"m 208 437 q 212 343 208 391 q 224 251 216 296 q 248 165 233 205 q 284 96 262 125 q 336 49 306 66 q 405 32 366 32 q 484 54 450 32 q 544 115 518 77 q 586 204 569 153 q 613 312 603 255 q 628 427 623 368 q 632 541 632 486 q 628 641 632 591 q 616 735 625 690 q 594 817 608 779 q 559 883 580 855 q 511 926 539 911 q 448 942 484 942 q 376 924 408 942 q 318 876 344 907 q 274 804 293 846 q 242 715 255 763 q 221 615 229 667 q 211 519 213 563 q 208 437 208 475 m 75 427 q 77 500 75 456 q 90 605 79 545 q 121 722 101 665 q 171 828 141 779 q 240 915 200 878 q 331 974 280 952 q 445 995 382 995 q 553 976 506 995 q 636 924 601 957 q 696 846 672 891 q 736 750 721 802 q 758 643 751 699 q 765 532 765 587 q 756 409 765 473 q 730 283 748 345 q 683 166 711 221 q 613 68 654 111 q 519 2 572 26 q 399 -22 466 -22 q 287 -4 336 -22 q 203 46 239 14 q 142 121 167 77 q 103 214 118 164 q 81 318 87 264 q 75 427 75 372 z "},"1":{"ha":492,"x_min":43,"x_max":426,"o":"m 318 151 q 315 100 317 124 q 309 56 314 75 l 426 61 l 423 0 l 79 0 l 80 46 q 140 59 116 47 q 179 91 165 71 q 201 140 194 111 q 210 204 208 168 l 240 860 l 237 860 l 68 753 l 43 794 l 313 995 l 361 995 l 318 151 z "},"2":{"ha":730,"x_min":38,"x_max":659,"o":"m 83 786 q 103 856 83 819 q 162 924 123 893 q 257 975 201 955 q 385 995 313 995 q 488 983 438 995 q 575 944 537 971 q 636 872 613 916 q 659 763 659 828 q 646 684 659 726 q 600 594 633 642 q 512 490 568 546 q 372 370 457 434 q 212 229 273 294 q 136 102 150 163 l 459 94 q 521 97 493 94 q 570 111 549 100 q 602 141 590 121 q 615 192 614 160 l 657 192 l 639 0 l 38 0 q 67 130 41 73 q 134 236 93 187 q 227 330 175 285 q 334 424 279 375 q 414 506 378 464 q 474 588 450 547 q 512 669 499 629 q 526 746 526 709 q 517 821 526 785 q 489 883 509 856 q 438 925 470 909 q 360 941 407 941 q 305 933 332 941 q 257 912 279 925 q 218 881 235 899 q 193 842 202 863 q 211 811 207 828 q 215 781 215 795 q 210 757 215 769 q 197 736 205 745 q 177 722 189 728 q 150 717 165 717 q 102 735 121 717 q 83 786 83 753 z "},"3":{"ha":758,"x_min":42,"x_max":686,"o":"m 155 127 q 177 87 161 104 q 216 59 193 70 q 265 43 238 48 q 319 37 292 37 q 415 54 372 37 q 487 101 457 71 q 533 176 517 132 q 549 274 549 220 q 546 318 549 294 q 536 365 543 342 q 515 410 528 389 q 480 449 502 432 q 429 475 459 465 q 358 485 399 485 q 309 484 330 485 q 267 482 288 484 l 270 545 l 327 545 q 399 556 368 545 q 453 585 431 567 q 491 626 476 603 q 515 673 506 649 q 527 720 524 697 q 531 762 531 743 q 523 833 531 800 q 497 889 515 865 q 447 927 478 913 q 370 941 416 941 q 308 931 337 941 q 257 906 279 921 q 219 872 234 890 q 199 836 204 853 q 214 808 210 823 q 217 781 217 793 q 213 759 217 770 q 200 740 208 748 q 181 727 192 732 q 157 722 170 722 q 113 739 131 722 q 96 787 96 756 q 115 854 96 818 q 172 922 134 891 q 264 974 210 954 q 391 995 319 995 q 494 983 445 995 q 580 944 543 971 q 639 875 617 918 q 661 771 661 832 q 649 699 661 736 q 608 627 636 661 q 535 565 580 593 q 425 522 490 537 q 538 497 489 517 q 620 445 587 477 q 669 373 652 414 q 686 285 686 332 q 672 194 686 235 q 633 118 658 152 q 574 57 608 83 q 500 14 540 31 q 416 -13 460 -4 q 328 -22 372 -22 q 202 -5 256 -22 q 113 40 149 13 q 60 102 77 68 q 42 168 42 136 q 61 224 42 203 q 111 245 80 245 q 136 240 125 245 q 156 226 148 235 q 169 207 164 218 q 173 183 173 195 q 169 156 173 170 q 155 127 165 141 z "},"4":{"ha":732,"x_min":5,"x_max":686,"o":"m 308 45 q 366 62 343 48 q 401 98 388 75 q 420 152 414 121 q 427 220 426 182 l 429 268 l 5 268 l 8 336 l 527 995 l 574 995 l 547 348 l 686 346 l 682 268 l 543 268 l 538 151 q 535 98 537 123 q 526 53 533 74 l 635 57 l 631 0 l 294 0 l 297 45 l 308 45 m 434 349 l 458 802 l 455 802 l 96 354 l 434 349 z "},"5":{"ha":726,"x_min":50,"x_max":673,"o":"m 161 127 q 176 85 162 103 q 211 55 190 67 q 257 38 231 43 q 307 32 282 32 q 409 55 367 32 q 476 116 450 78 q 514 201 503 153 q 526 298 526 249 q 523 352 526 323 q 512 407 519 380 q 489 458 504 434 q 452 500 475 482 q 397 530 429 519 q 321 541 365 541 q 241 530 286 541 q 153 493 196 519 l 115 528 l 138 972 l 490 972 q 557 978 530 972 q 601 994 584 983 q 627 1022 618 1005 q 636 1063 635 1039 l 673 1063 l 652 883 l 195 873 l 178 567 q 258 592 210 581 q 367 603 305 603 q 505 577 448 603 q 596 511 561 552 q 646 417 631 469 q 662 311 662 364 q 633 166 662 229 q 555 62 604 104 q 442 -1 506 20 q 309 -22 378 -22 q 197 -6 245 -22 q 116 37 149 11 q 66 97 83 64 q 50 165 50 131 q 68 224 50 202 q 119 245 87 245 q 144 240 133 245 q 164 227 156 235 q 177 208 172 218 q 181 184 181 197 q 177 156 181 172 q 161 127 172 141 z "},"6":{"ha":769,"x_min":73,"x_max":701,"o":"m 699 821 q 678 773 696 790 q 633 755 660 755 q 589 773 605 755 q 572 815 572 791 q 577 842 572 827 q 591 869 581 857 q 578 895 588 882 q 553 918 568 907 q 515 935 537 928 q 465 942 493 942 q 373 916 412 941 q 305 852 334 891 q 257 765 276 813 q 226 666 238 716 q 208 571 214 616 q 199 492 201 525 q 241 535 217 515 q 294 572 264 556 q 357 597 323 588 q 430 607 391 607 q 523 595 482 607 q 593 563 563 583 q 644 515 623 543 q 677 455 664 487 q 695 390 690 424 q 701 321 701 355 q 676 190 701 252 q 609 80 652 127 q 504 5 565 33 q 368 -22 442 -22 q 232 5 288 -22 q 140 84 176 33 q 89 208 105 135 q 73 373 73 281 q 73 409 73 379 q 77 484 73 439 q 91 584 81 529 q 119 696 100 640 q 165 807 137 753 q 236 902 194 861 q 336 969 279 944 q 470 995 393 995 q 571 979 528 995 q 643 938 614 962 q 685 884 671 913 q 699 821 699 855 m 406 546 q 335 531 372 546 q 266 491 298 515 q 214 434 235 466 q 193 368 193 401 q 201 244 193 304 q 229 137 209 184 q 283 61 249 90 q 369 32 317 32 q 462 55 424 32 q 524 116 500 78 q 559 201 548 153 q 570 300 570 250 q 564 383 570 340 q 540 462 557 426 q 490 522 522 498 q 406 546 458 546 z "},"7":{"ha":628,"x_min":44,"x_max":635,"o":"m 244 -22 q 206 -3 216 -20 q 197 40 195 15 q 209 96 197 62 q 237 169 220 130 q 272 248 254 208 q 307 322 291 288 q 358 437 329 371 q 422 577 388 503 q 493 730 456 652 q 567 880 530 808 l 201 878 q 151 872 173 878 q 113 854 128 867 q 88 823 97 842 q 77 775 79 804 l 44 775 l 54 972 l 635 972 l 631 880 q 564 747 594 811 q 507 618 533 682 q 458 491 481 555 q 414 359 436 427 q 370 218 392 292 q 323 64 348 145 q 311 31 317 47 q 295 3 304 15 q 273 -17 286 -9 q 244 -22 260 -24 z "},"8":{"ha":783,"x_min":78,"x_max":697,"o":"m 686 785 q 668 700 686 737 q 622 630 650 662 q 560 571 595 597 q 487 526 525 545 q 569 469 530 500 q 635 401 607 437 q 681 325 664 365 q 697 241 697 284 q 670 123 697 172 q 598 41 643 73 q 495 -7 553 9 q 376 -22 437 -22 q 265 -11 319 -22 q 170 26 212 0 q 103 94 128 52 q 78 198 78 136 q 96 289 78 245 q 144 371 114 332 q 215 442 174 409 q 300 501 255 475 q 164 615 209 556 q 119 733 119 673 q 146 850 119 801 q 218 932 174 900 q 316 979 262 964 q 422 995 370 995 q 520 981 473 995 q 605 941 568 968 q 664 876 642 915 q 686 785 686 837 m 347 475 q 273 410 302 444 q 225 340 243 375 q 200 272 208 305 q 193 212 193 239 q 242 79 193 125 q 382 33 292 33 q 458 47 423 33 q 517 87 492 62 q 556 146 542 112 q 570 222 570 181 q 556 295 570 260 q 516 359 542 329 q 454 414 490 389 q 393 452 418 439 q 347 475 368 465 m 438 552 q 503 605 475 576 q 547 662 530 633 q 573 720 564 691 q 581 776 581 749 q 569 847 581 816 q 536 898 557 878 q 486 930 515 919 q 422 941 457 941 q 346 925 379 941 q 289 885 313 910 q 254 829 266 861 q 241 764 241 797 q 290 647 241 700 q 438 552 338 593 z "},"9":{"ha":767,"x_min":79,"x_max":699,"o":"m 188 115 q 200 87 192 102 q 224 59 209 72 q 263 39 240 47 q 321 31 287 31 q 412 53 373 31 q 478 113 450 76 q 524 198 506 151 q 553 296 543 246 q 570 395 564 347 q 577 483 575 444 q 535 439 559 460 q 482 402 511 418 q 418 376 453 386 q 342 367 383 367 q 251 378 291 367 q 182 410 212 390 q 134 458 153 431 q 102 516 114 485 q 84 582 90 548 q 79 649 79 616 q 100 783 79 720 q 162 893 121 846 q 264 967 203 940 q 405 995 325 995 q 547 959 490 994 q 637 866 604 925 q 685 729 671 808 q 699 561 699 650 q 695 451 699 513 q 678 324 691 389 q 640 197 665 259 q 573 86 614 135 q 470 7 531 37 q 323 -22 408 -22 q 218 -7 262 -22 q 143 34 173 9 q 99 90 114 59 q 85 153 85 121 q 103 209 85 188 q 152 231 122 231 q 196 212 180 231 q 212 170 212 194 q 206 141 212 158 q 188 115 200 125 m 374 429 q 438 441 406 429 q 497 474 469 454 q 546 521 524 494 q 579 577 567 548 q 570 712 578 647 q 542 829 562 778 q 485 910 521 880 q 393 941 449 941 q 308 919 343 941 q 250 859 273 897 q 216 774 227 822 q 205 677 205 727 q 208 623 205 651 q 218 567 211 594 q 237 514 225 539 q 268 470 249 489 q 313 440 287 452 q 374 429 339 429 z "}," ":{"ha":366,"x_min":0,"x_max":0,"o":""},"!":{"ha":378,"x_min":94,"x_max":296,"o":"m 256 66 q 248 32 255 48 q 228 3 240 16 q 200 -16 216 -9 q 169 -22 185 -22 q 140 -16 153 -22 q 116 1 126 -9 q 100 27 106 12 q 94 60 94 42 q 101 98 94 80 q 120 129 108 115 q 147 150 132 142 q 180 157 163 157 q 235 133 214 155 q 256 66 256 111 m 213 319 l 162 319 l 141 897 q 146 932 141 915 q 162 964 152 950 q 189 986 173 978 q 224 995 204 995 q 257 988 243 995 q 280 970 271 981 q 292 943 288 958 q 296 913 296 928 q 296 903 296 906 q 213 319 296 900 z "},"\"":{"ha":495,"x_min":110,"x_max":452,"o":"m 110 682 l 117 995 l 226 995 l 196 682 l 110 682 m 336 682 l 344 995 l 452 995 l 422 682 l 336 682 z "},"#":{"ha":1122,"x_min":36,"x_max":1096,"o":"m 208 0 l 267 248 l 36 248 l 58 330 l 286 330 l 361 652 l 127 652 l 150 734 l 381 734 l 437 972 l 529 972 l 475 734 l 770 734 l 826 972 l 918 972 l 863 734 l 1096 734 l 1096 733 l 1075 652 l 844 652 l 772 330 l 1004 330 l 982 248 l 753 248 l 697 0 l 597 0 l 655 248 l 364 248 l 308 0 l 208 0 m 382 330 l 675 330 l 750 652 l 456 652 l 382 330 z "},"$":{"ha":735,"x_min":56,"x_max":673,"o":"m 131 -18 l 56 -18 l 71 277 l 119 277 q 137 167 120 213 q 186 91 155 121 q 261 47 217 61 q 361 33 306 33 q 438 46 402 33 q 500 84 474 60 q 541 141 526 108 q 556 214 556 174 q 536 296 556 260 q 483 359 515 331 q 407 412 450 388 q 321 459 365 435 q 234 509 277 483 q 159 567 192 534 q 106 641 126 600 q 85 738 85 683 q 91 786 85 760 q 109 840 96 812 q 142 895 121 868 q 194 942 163 921 q 266 978 224 964 q 361 995 307 992 l 370 1157 l 444 1157 l 434 993 q 585 932 511 983 l 583 995 l 653 995 l 636 691 l 585 691 q 574 786 584 741 q 542 866 565 831 q 478 920 518 900 q 378 940 439 940 q 300 925 334 940 q 244 887 267 911 q 210 833 221 863 q 198 772 198 803 q 218 692 198 727 q 272 629 239 658 q 349 577 306 601 q 436 528 391 553 q 523 477 480 504 q 599 418 566 451 q 653 345 633 386 q 673 249 673 303 q 655 152 673 199 q 602 68 637 105 q 513 6 566 31 q 390 -22 460 -18 l 379 -212 l 307 -212 l 315 -22 q 270 -19 294 -22 q 221 -9 245 -16 q 172 5 196 -3 q 127 26 148 14 l 131 -18 z "},"%":{"ha":1213,"x_min":69,"x_max":1154,"o":"m 191 746 q 191 732 191 739 q 191 706 191 726 q 196 650 191 686 q 215 585 201 614 q 253 537 229 556 q 315 518 277 518 q 385 540 357 518 q 429 595 412 562 q 451 667 445 629 q 458 739 458 706 q 452 809 458 773 q 432 875 446 845 q 394 924 418 905 q 335 943 370 943 q 269 922 296 943 q 225 871 242 901 q 200 807 208 841 q 191 746 192 772 m 1046 937 l 212 -22 l 158 31 l 985 995 l 1046 937 m 71 726 q 93 823 73 775 q 147 910 113 871 q 231 971 182 948 q 342 995 280 995 q 447 974 402 995 q 520 920 491 954 q 564 843 550 886 q 578 755 578 800 q 557 647 578 699 q 499 554 536 594 q 413 490 463 514 q 309 466 364 466 q 204 486 249 466 q 130 539 159 506 q 84 619 100 573 q 71 726 69 665 m 768 256 q 767 243 767 250 q 767 217 767 237 q 772 161 767 197 q 792 96 778 125 q 830 47 806 66 q 892 28 854 28 q 941 39 920 28 q 978 66 962 49 q 1005 106 994 83 q 1022 153 1015 128 q 1031 202 1029 177 q 1034 249 1034 227 q 1028 319 1034 283 q 1008 385 1023 355 q 970 434 994 415 q 911 454 947 454 q 845 433 872 454 q 802 381 819 412 q 777 317 785 351 q 768 256 769 283 m 647 237 q 669 335 650 287 q 724 421 689 383 q 807 483 758 460 q 919 507 857 507 q 1024 486 980 507 q 1097 430 1068 465 q 1140 352 1126 396 q 1154 263 1154 309 q 1133 155 1154 207 q 1074 64 1111 104 q 988 1 1037 25 q 885 -22 939 -22 q 781 -2 825 -22 q 706 51 736 18 q 662 127 676 85 q 647 201 648 170 q 647 237 646 233 z "},"&":{"ha":949,"x_min":47,"x_max":960,"o":"m 562 871 q 549 899 559 886 q 520 923 538 913 q 480 939 503 933 q 431 945 458 945 q 351 929 386 945 q 291 884 315 912 q 255 820 267 857 q 242 744 242 784 q 244 706 242 727 q 254 665 247 686 q 273 625 260 644 q 304 590 285 605 q 350 566 323 575 q 414 557 377 557 q 437 557 429 557 q 451 557 446 557 q 460 558 456 557 q 470 558 464 558 l 467 497 l 414 498 q 330 486 366 498 q 268 455 294 474 q 225 411 242 435 q 197 360 208 386 q 183 311 187 335 q 179 270 179 288 q 201 168 179 211 q 258 98 224 125 q 335 56 293 70 q 416 43 376 43 q 554 67 496 43 q 648 131 611 91 q 701 225 684 172 q 718 338 718 279 l 674 338 q 639 336 656 338 q 605 330 623 335 q 569 315 588 325 q 530 289 551 305 l 502 317 q 548 373 525 351 q 600 407 572 395 q 661 422 627 418 q 739 427 695 427 q 791 428 766 427 q 840 434 817 429 q 885 452 863 440 q 930 485 907 463 l 960 461 q 929 415 944 435 q 894 379 913 394 q 847 354 874 363 q 779 340 819 344 q 771 261 779 302 q 747 180 764 220 q 701 103 730 140 q 630 39 673 66 q 531 -6 588 11 q 398 -22 473 -22 q 259 -6 323 -22 q 148 42 195 9 q 74 125 101 75 q 47 242 47 175 q 63 341 47 292 q 113 430 80 390 q 195 498 146 470 q 310 534 245 526 q 219 564 256 545 q 161 608 183 583 q 129 662 138 633 q 119 724 119 692 q 143 837 119 787 q 209 922 167 887 q 306 976 250 958 q 427 995 362 995 q 527 982 483 995 q 602 947 571 968 q 650 898 633 926 q 667 841 667 870 q 651 794 667 814 q 606 775 636 775 q 567 790 583 775 q 550 829 550 804 q 562 871 550 850 z "},"'":{"ha":276,"x_min":110,"x_max":234,"o":"m 110 682 l 117 995 l 234 995 l 202 682 l 110 682 z "},"(":{"ha":414,"x_min":40,"x_max":425,"o":"m 172 296 q 218 -64 172 86 q 356 -344 264 -214 l 320 -376 q 255 -304 288 -345 q 191 -212 222 -262 q 132 -104 159 -162 q 84 18 105 -46 q 52 153 64 83 q 40 296 40 222 q 56 454 40 376 q 99 606 72 532 q 161 748 125 680 q 236 873 197 815 q 316 977 275 930 q 393 1056 357 1024 l 425 1024 q 248 705 311 879 q 172 296 184 531 z "},")":{"ha":414,"x_min":-22,"x_max":363,"o":"m 231 384 q 184 743 231 593 q 47 1023 138 893 l 83 1055 q 148 983 115 1025 q 212 892 181 942 q 271 784 243 842 q 318 661 298 726 q 351 527 339 597 q 363 384 363 457 q 347 225 363 304 q 304 73 331 147 q 242 -68 277 -1 q 167 -193 206 -136 q 87 -298 127 -251 q 9 -376 46 -345 l -22 -345 q 155 -25 92 -199 q 231 384 218 149 z "},"*":{"ha":712,"x_min":75,"x_max":683,"o":"m 395 706 q 478 747 433 726 q 567 789 522 768 q 601 802 583 797 q 635 807 618 807 q 670 796 656 807 q 683 764 683 785 q 675 739 683 750 q 655 721 667 728 q 628 707 643 713 q 597 699 612 702 q 501 681 551 690 q 406 667 451 671 q 469 606 437 640 q 532 536 502 571 q 556 499 546 521 q 567 458 567 477 q 554 425 567 438 q 522 411 541 411 q 502 416 511 411 q 484 430 492 421 q 468 449 475 438 q 455 470 461 459 q 434 513 445 490 q 412 557 422 535 q 392 602 401 580 q 374 644 382 624 q 352 602 364 624 q 326 557 339 580 q 299 513 313 535 q 274 470 286 490 q 259 449 267 459 q 240 431 250 439 q 220 418 231 422 q 199 413 209 413 q 171 425 182 413 q 159 452 159 436 q 173 496 159 473 q 203 536 186 519 q 271 604 237 571 q 341 667 304 637 q 248 683 298 675 q 153 699 197 690 q 125 707 139 702 q 100 719 111 711 q 81 735 88 726 q 75 757 75 745 q 80 780 75 770 q 93 795 85 789 q 110 804 100 801 q 129 806 119 806 q 160 802 144 806 q 192 789 176 797 q 278 747 235 769 q 356 706 321 724 q 349 753 352 727 q 344 806 347 779 q 340 856 342 833 q 338 911 339 879 q 340 941 338 926 q 349 968 342 956 q 365 987 355 980 q 391 995 375 995 q 412 989 404 995 q 426 975 421 984 q 434 954 431 966 q 436 929 436 942 q 435 911 436 920 q 429 875 434 903 q 416 797 425 847 q 395 706 407 747 z "},"+":{"ha":710,"x_min":45,"x_max":668,"o":"m 50 479 l 317 478 l 332 754 l 415 754 l 400 477 l 668 476 l 664 404 l 396 403 l 380 114 l 297 114 l 313 402 l 45 401 l 50 479 z "},",":{"ha":329,"x_min":60,"x_max":227,"o":"m 79 -220 q 104 -184 91 -207 q 130 -133 118 -161 q 149 -73 141 -104 q 156 0 156 -42 l 154 0 q 137 -5 145 -3 q 121 -6 129 -6 q 97 -1 108 -6 q 77 14 85 5 q 65 34 69 22 q 60 58 60 46 q 66 92 60 77 q 83 116 73 106 q 108 131 94 126 q 138 136 122 136 q 204 106 181 136 q 227 27 227 76 q 220 -33 227 1 q 199 -104 213 -67 q 163 -178 184 -141 q 113 -248 142 -216 l 79 -220 z "},"-":{"ha":671,"x_min":88,"x_max":585,"o":"m 92 490 l 585 490 l 581 404 l 88 399 l 92 490 z "},".":{"ha":323,"x_min":59,"x_max":217,"o":"m 217 65 q 209 31 216 47 q 191 3 202 14 q 164 -16 179 -9 q 134 -22 150 -22 q 105 -16 119 -22 q 81 2 92 -9 q 65 28 71 13 q 59 61 59 43 q 66 97 59 80 q 85 126 73 113 q 113 145 98 138 q 145 153 129 153 q 197 129 178 153 q 217 70 217 105 l 217 65 z "},"/":{"ha":908,"x_min":-24,"x_max":920,"o":"m 920 1004 l 41 -376 l -24 -330 l 844 1055 l 920 1004 z "},":":{"ha":352,"x_min":81,"x_max":260,"o":"m 239 65 q 232 31 239 47 q 213 3 224 14 q 187 -16 201 -9 q 157 -22 172 -22 q 127 -16 141 -22 q 104 2 114 -9 q 87 28 94 13 q 81 61 81 43 q 89 97 81 80 q 108 126 96 113 q 136 145 120 138 q 168 153 151 153 q 220 129 200 153 q 239 70 239 105 l 239 65 m 260 629 q 253 595 260 611 q 234 567 245 578 q 208 549 222 555 q 178 542 193 542 q 149 548 162 542 q 125 566 135 555 q 109 592 115 577 q 102 625 102 608 q 110 661 102 644 q 129 690 117 677 q 157 710 141 703 q 189 717 172 717 q 241 693 221 717 q 260 634 260 669 l 260 629 z "},";":{"ha":376,"x_min":95,"x_max":264,"o":"m 113 -220 q 139 -184 125 -207 q 164 -133 153 -161 q 183 -73 176 -104 q 191 0 191 -42 l 189 0 q 172 -5 180 -3 q 156 -6 163 -6 q 131 -1 142 -6 q 112 14 120 5 q 99 34 104 22 q 95 58 95 46 q 101 92 95 77 q 118 116 107 106 q 143 131 129 126 q 173 136 157 136 q 239 106 216 136 q 262 27 262 76 q 255 -33 262 1 q 233 -104 248 -67 q 198 -178 219 -141 q 148 -248 176 -216 l 113 -220 m 264 629 q 257 595 264 611 q 238 567 250 578 q 212 549 227 555 q 182 542 197 542 q 153 548 166 542 q 129 566 139 555 q 113 592 119 577 q 106 625 106 608 q 114 661 106 644 q 133 690 121 677 q 161 710 145 703 q 193 717 176 717 q 245 693 225 717 q 264 634 264 669 l 264 629 z "},"<":{"ha":749,"x_min":45,"x_max":682,"o":"m 49 481 l 682 755 l 677 672 l 138 440 l 138 439 l 653 207 l 648 121 l 45 390 l 49 481 z "},"=":{"ha":816,"x_min":90,"x_max":726,"o":"m 94 340 l 712 338 l 708 262 l 90 260 l 94 340 m 108 607 l 726 604 l 722 529 l 104 526 l 108 607 z "},">":{"ha":748,"x_min":68,"x_max":705,"o":"m 701 396 l 68 121 l 73 205 l 612 437 l 612 438 l 97 670 l 102 756 l 705 487 l 701 396 z "},"?":{"ha":657,"x_min":71,"x_max":623,"o":"m 378 60 q 371 28 377 43 q 354 2 364 13 q 329 -16 343 -9 q 299 -22 315 -22 q 249 -2 271 -22 q 228 55 228 18 q 235 89 228 73 q 254 116 242 104 q 279 135 265 128 q 309 142 294 142 q 358 120 338 142 q 378 66 378 98 l 378 60 m 71 795 q 91 861 71 826 q 150 926 112 897 q 241 975 188 956 q 361 995 295 995 q 484 977 434 995 q 565 929 534 959 q 609 861 595 899 q 623 783 623 823 q 618 735 623 767 q 588 664 613 704 q 526 588 564 623 q 450 523 489 553 q 375 466 410 493 q 318 414 339 439 q 297 367 297 390 q 309 338 297 351 q 352 325 321 325 q 376 327 361 325 q 405 335 391 330 l 419 286 q 368 267 396 273 q 308 261 339 261 q 278 266 296 261 q 243 281 260 271 q 215 308 227 292 q 203 349 203 325 q 225 411 203 382 q 281 469 247 440 q 352 528 315 498 q 422 594 389 557 q 476 677 456 631 q 497 781 497 722 q 489 843 497 814 q 462 894 481 872 q 413 928 444 916 q 337 941 382 941 q 279 931 307 941 q 231 908 252 922 q 196 877 210 894 q 178 844 182 859 q 195 817 191 832 q 199 789 199 802 q 181 745 199 764 q 136 726 164 726 q 89 745 107 726 q 71 795 71 764 z "},"@":{"ha":1101,"x_min":59,"x_max":1042,"o":"m 684 615 q 600 628 654 628 q 536 612 566 628 q 484 570 507 597 q 442 509 460 544 q 412 435 424 474 q 394 355 400 396 q 388 277 388 315 q 405 184 388 218 q 454 150 421 150 q 505 171 479 150 q 556 228 531 192 q 603 310 581 263 q 642 408 625 357 q 670 513 659 460 q 684 615 682 567 m 1042 463 q 1038 394 1042 424 q 1020 318 1034 365 q 983 232 1006 271 q 931 165 960 193 q 872 121 902 138 q 812 97 842 104 q 758 90 782 90 q 697 100 721 90 q 660 126 673 110 q 640 165 646 143 q 634 209 634 186 q 640 272 634 239 q 654 338 646 305 l 651 338 q 591 211 621 258 q 532 138 561 163 q 477 105 504 113 q 428 97 450 97 q 376 107 400 97 q 334 138 352 117 q 306 191 316 159 q 295 269 295 224 q 318 420 295 348 q 384 548 340 493 q 491 636 427 604 q 636 669 554 669 q 707 665 669 669 q 781 652 746 661 q 759 536 770 595 q 739 423 748 477 q 723 323 729 369 q 716 246 716 277 q 720 203 716 222 q 731 168 723 183 q 751 145 739 153 q 783 137 764 137 q 845 159 815 137 q 897 220 874 180 q 934 317 920 260 q 947 443 947 374 q 920 618 947 545 q 845 739 893 692 q 733 807 798 785 q 594 829 669 829 q 415 789 496 829 q 278 679 335 748 q 190 520 221 610 q 159 331 159 430 q 175 201 159 259 q 219 98 191 143 q 286 20 248 52 q 369 -34 324 -13 q 464 -66 414 -56 q 565 -76 514 -76 q 641 -70 600 -76 q 723 -50 681 -64 q 805 -9 764 -35 q 882 57 846 16 l 913 22 q 741 -96 839 -59 q 527 -132 643 -132 q 320 -96 408 -132 q 174 4 232 -59 q 87 149 116 66 q 59 325 59 232 q 73 451 59 386 q 117 579 87 517 q 191 696 146 641 q 296 794 235 752 q 432 860 356 836 q 601 884 508 884 q 736 868 675 884 q 847 822 798 851 q 932 752 896 792 q 994 665 969 712 q 1030 567 1018 618 q 1042 463 1042 515 z "}}}
